<svg width="66" height="66" viewBox="0 0 66 66" fill="none" xmlns="http://www.w3.org/2000/svg">
<path fill-rule="evenodd" clip-rule="evenodd" d="M0.5 33C0.5 15.0507 15.0507 0.5 33 0.5C50.9493 0.5 65.5 15.0507 65.5 33C65.5 50.9493 50.9493 65.5 33 65.5C15.0507 65.5 0.5 50.9493 0.5 33ZM33 1.5C15.603 1.5 1.5 15.603 1.5 33C1.5 50.397 15.603 64.5 33 64.5C50.397 64.5 64.5 50.397 64.5 33C64.5 15.603 50.397 1.5 33 1.5Z" fill="#1565D8"/>
<path opacity="0.3" fill-rule="evenodd" clip-rule="evenodd" d="M34.2 23.4C34.2 24.0628 33.6627 24.6 33 24.6C32.3372 24.6 31.8 24.0628 31.8 23.4V18.6C31.8 17.9373 32.3372 17.4 33 17.4C33.6627 17.4 34.2 17.9373 34.2 18.6V23.4Z" fill="#1565D8"/>
<path fill-rule="evenodd" clip-rule="evenodd" d="M40.2 49.8001L37.9167 42.447C37.4027 40.7919 36.2024 39.4877 34.6673 38.925C31.9424 37.926 28.9944 39.5129 28.0833 42.447L25.8 49.8001H18.6181C17.2855 49.8001 16.2 48.7318 16.2 47.4075C16.2 47.0041 16.3031 46.6074 16.4995 46.2542L28.0423 25.4962C29.5428 22.7977 32.9738 21.8097 35.7097 23.2832C36.6576 23.7937 37.4377 24.5615 37.9575 25.4962L49.5002 46.2542C50.1468 47.417 49.713 48.8759 48.5378 49.5089C48.1829 49.7 47.7854 49.8001 47.3816 49.8001H40.2Z" fill="#1565D8"/>
<path opacity="0.3" fill-rule="evenodd" clip-rule="evenodd" d="M36.4551 42.9395C36.0873 41.7548 35.2358 40.8296 34.1573 40.4343C32.2586 39.7383 30.1938 40.8498 29.5449 42.9395L27.9113 48.2001H38.0887L36.4551 42.9395Z" fill="#1565D8"/>
</svg>
