<svg width="66" height="66" viewBox="0 0 66 66" fill="none" xmlns="http://www.w3.org/2000/svg">
<g opacity="0.2">
<path fill-rule="evenodd" clip-rule="evenodd" d="M0.5 33C0.5 15.0507 15.0507 0.5 33 0.5C50.9493 0.5 65.5 15.0507 65.5 33C65.5 50.9493 50.9493 65.5 33 65.5C15.0507 65.5 0.5 50.9493 0.5 33ZM33 1.5C15.603 1.5 1.5 15.603 1.5 33C1.5 50.397 15.603 64.5 33 64.5C50.397 64.5 64.5 50.397 64.5 33C64.5 15.603 50.397 1.5 33 1.5Z" fill="#1565D8"/>
</g>
<path fill-rule="evenodd" clip-rule="evenodd" d="M47.9447 18.6954C49.0309 24.5255 46.5964 30.709 41.7064 34.5775L28.7497 44.8275C28.4313 45.0794 27.9747 45.0529 27.6876 44.7658L21.2343 38.3125C20.9473 38.0254 20.9207 37.5688 21.1726 37.2504L31.4226 24.2937C35.2911 19.4037 41.4746 16.9692 47.3047 18.0555C47.6298 18.116 47.8841 18.3703 47.9447 18.6954ZM36.5716 23.7716C35.0095 25.3337 35.0095 27.8664 36.5716 29.4285C38.1337 30.9906 40.6663 30.9906 42.2284 29.4285C43.7905 27.8664 43.7905 25.3337 42.2284 23.7716C40.6663 22.2095 38.1337 22.2095 36.5716 23.7716ZM41.0971 28.2971C40.1598 29.2344 38.6402 29.2344 37.7029 28.2971C36.7657 27.3598 36.7657 25.8403 37.7029 24.903C38.6402 23.9657 40.1598 23.9657 41.0971 24.903C42.0343 25.8403 42.0343 27.3598 41.0971 28.2971Z" fill="#1565D8"/>
<path opacity="0.3" fill-rule="evenodd" clip-rule="evenodd" d="M25.8 45.2508L25.0894 45.9614C24.238 46.8128 22.8576 46.8128 22.0062 45.9614L20.0386 43.9938C19.1872 43.1424 19.1872 41.762 20.0386 40.9106L20.7492 40.2L25.8 45.2508ZM21.5961 33.8L18.1674 31.5206C17.7028 31.2117 17.6736 30.5414 18.1097 30.1935L24.2999 25.2756C25.6338 24.2158 27.409 23.9227 28.9982 24.4695L21.5961 33.8ZM41.5072 37C42.0897 38.6207 41.7937 40.4426 40.7032 41.7975L35.7995 47.8901C35.4523 48.3264 34.7833 48.2972 34.475 47.8323L32.2 44.4017L41.5072 37V37Z" fill="#1565D8"/>
</svg>
